# xmcd CD database file
#
# Track frame offsets:
#	150
#	27952
#	49062
#	68519
#	86478
#	108019
#	131791
#	148494
#	173900
#	192122
#	216668
#
# Disc length: 3083 seconds
#
# Revision: 0
# Processed by: cddbd v1.5.2PL0 Copyright (c) Steve Scherf et al.
# Submitted via: CDex 1.70beta2
#
DISCID=a10c090b
DTITLE=Alyssa graham - echo
DYEAR=1900
DGENRE=Jazz
TTITLE0=america
TTITLE1=pictures of you
TTITLE2=echo
TTITLE3=arkansas
TTITLE4=my love
TTITLE5=butterflies
TTITLE6=I burn for you
TTITLE7=involved again
TTITLE8=once upoin a summertime
TTITLE9=coming home
TTITLE10=izaura
EXTD=
EXTT0=
EXTT1=
EXTT2=
EXTT3=
EXTT4=
EXTT5=
EXTT6=
EXTT7=
EXTT8=
EXTT9=
EXTT10=
PLAYORDER=
